<svg width="1280" height="720" viewBox="0 0 1280 720" fill="none" xmlns="http://www.w3.org/2000/svg">
<g clip-path="url(#clip0_24_11)">
<rect width="1280" height="720" fill="#F56879"/>
<g filter="url(#filter0_d_24_11)">
<path d="M173.333 578.447C83.4212 582.26 17.6911 507.587 0 476.152V720.255H1280V530.964C1004.02 610.738 840.164 539.038 599.415 454.363C355.666 368.632 372.011 570.021 173.333 578.447Z" fill="#1D2124"/>
</g>
<path d="M1280 614.933V467.414C862.222 658.169 659.096 256.965 384.089 435.004C244.521 525.36 89.3149 544.647 0 384.816V614.933H1280Z" fill="#1D2124" fill-opacity="0.4"/>
<path d="M1280 583.348V344.852C1166.41 569.107 965.926 473.733 890.261 453.419C759.352 418.273 761.481 536.938 569.927 453.419C378.372 369.899 271.111 658.418 0 459.372V583.348H1280Z" fill="#1D2124" fill-opacity="0.3"/>
</g>
<defs>
<filter id="filter0_d_24_11" x="-4" y="433.16" width="1288" height="295.095" filterUnits="userSpaceOnUse" color-interpolation-filters="sRGB">
<feFlood flood-opacity="0" result="BackgroundImageFix"/>
<feColorMatrix in="SourceAlpha" type="matrix" values="0 0 0 0 0 0 0 0 0 0 0 0 0 0 0 0 0 0 127 0" result="hardAlpha"/>
<feOffset dy="4"/>
<feGaussianBlur stdDeviation="2"/>
<feComposite in2="hardAlpha" operator="out"/>
<feColorMatrix type="matrix" values="0 0 0 0 0 0 0 0 0 0 0 0 0 0 0 0 0 0 0.25 0"/>
<feBlend mode="normal" in2="BackgroundImageFix" result="effect1_dropShadow_24_11"/>
<feBlend mode="normal" in="SourceGraphic" in2="effect1_dropShadow_24_11" result="shape"/>
</filter>
<clipPath id="clip0_24_11">
<rect width="1280" height="720" fill="white"/>
</clipPath>
</defs>
</svg>
