<svg width="360" height="800" viewBox="0 0 360 800" fill="none" xmlns="http://www.w3.org/2000/svg">
<g clip-path="url(#clip0_24_11)">
<rect width="360" height="800" fill="#F56879"/>
<g filter="url(#filter0_d_24_11)">
<path d="M48.75 642.719C23.4622 646.956 4.97561 563.985 0 529.057V800.284H360V589.96C282.382 678.598 236.296 598.932 168.585 504.847C100.031 409.591 104.628 633.357 48.75 642.719Z" fill="#1D2124"/>
</g>
<path d="M360 683.259V519.348C242.5 731.299 185.371 285.517 108.025 483.338C68.7714 583.733 25.1198 605.163 0 427.574V683.259H360Z" fill="#1D2124" fill-opacity="0.4"/>
<path d="M360 648.165V383.169C328.053 632.341 271.667 526.37 250.386 503.799C213.568 464.747 214.167 596.598 160.292 503.799C106.417 410.999 76.25 731.576 0 510.414V648.165H360Z" fill="#1D2124" fill-opacity="0.3"/>
</g>
<defs>
<filter id="filter0_d_24_11" x="-4" y="481.289" width="368" height="326.994" filterUnits="userSpaceOnUse" color-interpolation-filters="sRGB">
<feFlood flood-opacity="0" result="BackgroundImageFix"/>
<feColorMatrix in="SourceAlpha" type="matrix" values="0 0 0 0 0 0 0 0 0 0 0 0 0 0 0 0 0 0 127 0" result="hardAlpha"/>
<feOffset dy="4"/>
<feGaussianBlur stdDeviation="2"/>
<feComposite in2="hardAlpha" operator="out"/>
<feColorMatrix type="matrix" values="0 0 0 0 0 0 0 0 0 0 0 0 0 0 0 0 0 0 0.25 0"/>
<feBlend mode="normal" in2="BackgroundImageFix" result="effect1_dropShadow_24_11"/>
<feBlend mode="normal" in="SourceGraphic" in2="effect1_dropShadow_24_11" result="shape"/>
</filter>
<clipPath id="clip0_24_11">
<rect width="360" height="800" fill="white"/>
</clipPath>
</defs>
</svg>
