<svg width="1728" height="1117" viewBox="0 0 1728 1117" fill="none" xmlns="http://www.w3.org/2000/svg">
<g clip-path="url(#clip0_24_11)">
<rect width="1728" height="1117" fill="#F56879"/>
<g filter="url(#filter0_d_24_11)">
<path d="M234 897.396C112.619 903.312 23.8829 787.464 0 738.696V1117.4H1728V823.732C1355.43 947.492 1134.22 836.258 809.21 704.893C480.149 571.892 502.215 884.325 234 897.396Z" fill="#1D2124"/>
</g>
<path d="M1728 954V725.14C1164 1021.08 889.779 398.653 518.52 674.86C330.103 815.038 120.575 844.959 0 597V954H1728Z" fill="#1D2124" fill-opacity="0.4"/>
<path d="M1728 905V535C1574.66 882.906 1304 734.944 1201.85 703.429C1025.12 648.904 1028 833 769.401 703.429C510.803 573.858 366 1021.46 0 712.665V905H1728Z" fill="#1D2124" fill-opacity="0.3"/>
</g>
<defs>
<filter id="filter0_d_24_11" x="-4" y="672" width="1736" height="453.396" filterUnits="userSpaceOnUse" color-interpolation-filters="sRGB">
<feFlood flood-opacity="0" result="BackgroundImageFix"/>
<feColorMatrix in="SourceAlpha" type="matrix" values="0 0 0 0 0 0 0 0 0 0 0 0 0 0 0 0 0 0 127 0" result="hardAlpha"/>
<feOffset dy="4"/>
<feGaussianBlur stdDeviation="2"/>
<feComposite in2="hardAlpha" operator="out"/>
<feColorMatrix type="matrix" values="0 0 0 0 0 0 0 0 0 0 0 0 0 0 0 0 0 0 0.25 0"/>
<feBlend mode="normal" in2="BackgroundImageFix" result="effect1_dropShadow_24_11"/>
<feBlend mode="normal" in="SourceGraphic" in2="effect1_dropShadow_24_11" result="shape"/>
</filter>
<clipPath id="clip0_24_11">
<rect width="1728" height="1117" fill="white"/>
</clipPath>
</defs>
</svg>
