<svg width="512" height="408" viewBox="0 0 512 408" fill="none" xmlns="http://www.w3.org/2000/svg">
<path d="M501.792 114.525C488.594 87.7897 460.324 70.5073 429.783 70.5073C426.907 70.5073 424.053 70.6558 421.222 70.953C417.423 39.1998 393.444 11.5128 359.886 4.00778C353.986 2.68725 347.95 2.02148 341.943 2.02148C334.469 2.02148 327.035 3.0504 319.85 5.0752C287.559 14.1758 265.008 44.0747 265.008 77.7867V83.1293V141.612V263.711V307.553V327.19C265.008 367.004 296.086 400.331 335.766 403.065C337.623 403.192 339.508 403.258 341.365 403.258C347.316 403.258 353.278 402.598 359.087 401.299C392.629 393.943 416.726 366.371 420.667 334.657C423.6 334.976 426.561 335.135 429.545 335.135C459.962 335.135 488.181 317.957 501.447 291.376C516.485 261.235 509.317 225.708 486.216 202.94C509.413 180.254 516.729 144.737 501.792 114.525ZM486.454 284.317C475.532 306.199 452.992 318.953 429.54 318.953C420.735 318.953 411.806 317.154 403.308 313.369C410.187 346.019 388.943 378.162 355.345 385.53C350.668 386.575 345.94 387.076 341.354 387.076C339.871 387.076 338.398 387.026 336.932 386.922C305.4 384.748 281.648 357.909 281.648 327.19V307.553V263.711V141.607V83.1238V77.7812C281.648 51.7118 298.713 27.8708 324.476 20.6134C330.075 19.0343 335.941 18.2034 341.931 18.2034C346.62 18.2034 351.376 18.7151 356.143 19.7771C389.69 27.2766 410.793 59.5194 403.772 92.1639C412.203 88.4554 421.058 86.6892 429.777 86.6892C453.326 86.6892 475.923 99.5368 486.782 121.535C501.707 151.725 488.934 187.875 458.286 202.879C488.889 218.021 501.475 254.214 486.454 284.317Z" fill="#CC7E85"/>
<path d="M71.5938 194.075H120.349V244.547H176.777V233.757H171.879H131.452V189.267V183.291H126.023H82.697V152.826H94.3041V148.38V118.398H58.877V152.826H71.5938V194.075ZM69.9745 142.036V129.188H83.1952V142.036H69.9745Z" fill="#CC7E85"/>
<path d="M82.6911 293.495V255.821H94.2982V251.617V221.394H58.8711V255.821H71.5879V304.279H126.951V298.887V293.495H123.225H82.6911ZM69.9743 245.031V232.184H83.195V245.031H69.9743Z" fill="#CC7E85"/>
<path d="M197.715 214.428H192.166V228.211V336.643H176.188V324.824H153.245H140.761V359.251H176.188V347.433H203.269V214.428H197.715ZM165.085 348.462H151.864V335.614H165.085V348.462Z" fill="#CC7E85"/>
<path d="M168.233 92.7636V80.9449H187.869V131.158V138.129H198.972V70.1606H168.233V58.3419H132.811V92.7636H157.305H168.233ZM157.135 81.9793H143.914V69.1317H157.135V81.9793Z" fill="#CC7E85"/>
<path d="M359.229 256.817H353.68V265.934V335.878H332.544V324.059H318.298H297.117V358.487H332.544V346.668H364.778V256.817H359.229ZM321.446 347.697H308.226V334.849H321.446V347.697Z" fill="#CC7E85"/>
<path d="M439.448 166.317V123.334L345.566 123.835H316.266V74.788H338.885V86.6067H355.798H374.307V52.1794H338.88V63.9981H305.157V233.422H297.117V267.849H332.544V233.422H316.26V230.44V134.619H380.178V192.849H370.106V194.62V223.21H401.348V192.849H391.281V134.124H398.625H428.351V159.995V166.317H418.283V196.673H449.526V166.317H439.448ZM349.983 62.9692H363.204V75.8169H349.983V62.9692ZM321.446 244.212V257.059H308.226V244.212H321.446ZM390.245 212.425H381.209V203.644H390.245V212.425ZM438.412 185.883H429.375V177.101H438.412V185.883Z" fill="#CC7E85"/>
<path d="M418.278 252.36V256.872H428.345V287.338H390.075H385.727V292.73V298.122H439.442V256.872H449.509V226.516H418.272L418.278 252.36ZM429.375 237.301H438.412V246.082H429.375V237.301Z" fill="#CC7E85"/>
<path d="M189.726 5.05318C182.535 3.01737 175.118 2.02698 167.644 2.02698C161.642 2.02698 155.584 2.68724 149.695 4.00776C116.12 11.4907 92.1694 39.2218 88.3193 70.9694C85.5449 70.6393 82.6573 70.5293 79.7696 70.5293C49.2514 70.5293 20.9981 87.8062 7.74898 114.547C-7.14208 144.754 0.161899 180.243 23.3761 202.912C0.275139 225.691 -6.9156 261.235 8.14532 291.387C21.3944 317.963 49.5912 335.13 80.0527 335.13C82.997 335.13 85.9978 334.965 88.8855 334.634C92.8489 366.382 116.969 393.948 150.545 401.321C156.32 402.587 162.265 403.247 168.21 403.247C170.079 403.247 171.947 403.192 173.815 403.082C213.506 400.331 244.59 366.987 244.59 327.207V77.7922C244.59 44.0637 221.999 14.1868 189.726 5.05318ZM227.888 327.207C227.888 357.909 204.164 384.759 172.626 386.905C171.154 387.015 169.682 387.07 168.21 387.07C163.624 387.07 158.924 386.575 154.225 385.53C120.649 378.157 99.3602 346.024 106.268 313.396C97.7748 317.138 88.8288 318.953 80.0527 318.953C56.5554 318.953 34.0207 306.188 23.093 284.289C8.0887 254.192 20.6583 218.043 51.2898 202.857C20.6017 187.891 7.86222 151.742 22.8099 121.535C33.6243 99.5258 56.2157 86.7057 79.7696 86.7057C88.4891 86.7057 97.3785 88.4664 105.815 92.1529C98.794 59.5249 119.857 27.282 153.432 19.7991C158.188 18.6986 162.944 18.2034 167.644 18.2034C173.646 18.2034 179.477 19.0288 185.083 20.6244C210.845 27.8873 227.888 51.7118 227.888 77.7922V173.145H185.423V161.315H149.978V195.759H185.423V183.929H227.888V327.207ZM174.325 172.1V184.975H161.133V172.1H174.325Z" fill="#CC7E85"/>
</svg>
